<svg width="39" height="39" viewBox="0 0 39 39" fill="none" xmlns="http://www.w3.org/2000/svg">
<path d="M39 19.5C39 30.2696 30.2696 39 19.5 39C8.73045 39 0 30.2696 0 19.5C0 8.73045 8.73045 0 19.5 0C30.2696 0 39 8.73045 39 19.5Z" fill="#FF00B8"/>
<path fill-rule="evenodd" clip-rule="evenodd" d="M14.5 28.5H10V15H14.5V28.5V28.5Z" fill="white"/>
<path fill-rule="evenodd" clip-rule="evenodd" d="M12.2366 13.5H12.2111C10.8682 13.5 10 12.4995 10 11.2492C10 9.97246 10.8946 9 12.263 9C13.6314 9 14.474 9.97246 14.5 11.2492C14.5 12.4995 13.6314 13.5 12.2366 13.5V13.5Z" fill="white"/>
<path fill-rule="evenodd" clip-rule="evenodd" d="M31.4998 28.4996H27.0779V21.443C27.0779 19.6706 26.438 18.4611 24.8372 18.4611C23.6155 18.4611 22.8878 19.2764 22.5682 20.064C22.4513 20.3462 22.4226 20.7395 22.4226 21.1337V28.5H18C18 28.5 18.0583 16.5477 18 15.3101H22.4226V17.1783C23.0095 16.2802 24.0607 15 26.4085 15C29.3185 15 31.5 16.8856 31.5 20.9369L31.4998 28.4996V28.4996Z" fill="white"/>
</svg>
