<svg width="39" height="39" viewBox="0 0 39 39" fill="none" xmlns="http://www.w3.org/2000/svg">
<path d="M39 19.5C39 30.2696 30.2696 39 19.5 39C8.73045 39 0 30.2696 0 19.5C0 8.73045 8.73045 0 19.5 0C30.2696 0 39 8.73045 39 19.5Z" fill="#00C2FF"/>
<path fill-rule="evenodd" clip-rule="evenodd" d="M19.7111 14.5863L19.7545 15.4946L19.0319 15.3834C16.4018 14.9571 14.1041 13.5112 12.1532 11.0829L11.1994 9.87795L10.9538 10.7677C10.4335 12.7512 10.7659 14.8458 11.8497 16.2547C12.4278 17.0332 12.2977 17.1444 11.3006 16.681C10.9538 16.5327 10.6503 16.4215 10.6214 16.4771C10.5202 16.6069 10.8671 18.2937 11.1416 18.961C11.5174 19.8879 12.2833 20.7962 13.1214 21.3338L13.8295 21.7601L12.9914 21.7787C12.1821 21.7787 12.1532 21.7972 12.2399 22.1865C12.5289 23.3914 13.6706 24.6704 14.9423 25.2265L15.8382 25.6158L15.0579 26.209C13.9018 27.0617 12.5434 27.5436 11.185 27.5807C10.5347 27.5992 10 27.6734 10 27.729C10 27.9144 11.763 28.9524 12.7891 29.3603C15.8671 30.5652 19.5233 30.0461 22.269 27.9885C24.2199 26.5241 26.1708 23.6138 27.0812 20.7962C27.5725 19.2947 28.0639 16.5512 28.0639 15.2351C28.0639 14.3824 28.1072 14.2712 28.9165 13.2517C29.3934 12.6585 29.8414 12.0097 29.9281 11.8243C30.0726 11.4721 30.0581 11.4721 29.3211 11.7873C28.0928 12.3434 27.9194 12.2692 28.5263 11.4351C28.9743 10.8419 29.509 9.76673 29.509 9.4516C29.509 9.39599 29.2922 9.48868 29.0466 9.65551C28.7864 9.84088 28.2084 10.1189 27.7749 10.2858L26.9945 10.6009L26.2864 9.98917C25.8962 9.65551 25.3471 9.28477 25.058 9.17355C24.321 8.91403 23.1939 8.95111 22.5291 9.2477C20.7227 10.0819 19.5811 12.2321 19.7111 14.5863Z" fill="white"/>
</svg>
